<svg width="21" height="27" viewBox="0 0 21 27" fill="none" xmlns="http://www.w3.org/2000/svg">
<path d="M13.139 9.70339C12.3578 10.2253 11.4395 10.5039 10.5 10.5039C9.24022 10.5039 8.03204 10.0035 7.14124 9.11266C6.25044 8.22187 5.75 7.01369 5.75 5.75391C5.75 4.81445 6.02858 3.89608 6.55052 3.11495C7.07246 2.33382 7.8143 1.725 8.68225 1.36548C9.5502 1.00596 10.5053 0.911899 11.4267 1.09518C12.3481 1.27846 13.1945 1.73085 13.8588 2.39515C14.5231 3.05945 14.9754 3.90582 15.1587 4.82723C15.342 5.74864 15.2479 6.7037 14.8884 7.57165C14.5289 8.4396 13.9201 9.18145 13.139 9.70339Z" fill="#222222" stroke="#222222"/>
<path d="M20.2099 25.9651C20.0229 26.1491 19.7677 26.2539 19.5 26.2539H1.5C1.23226 26.2539 0.977051 26.1491 0.790099 25.9651C0.603413 25.7813 0.5 25.5338 0.5 25.2773C0.5 22.6713 1.55162 20.1703 3.42614 18.3251C5.30092 16.4796 7.84532 15.4414 10.5 15.4414C13.1547 15.4414 15.6991 16.4796 17.5739 18.3251C19.4484 20.1703 20.5 22.6713 20.5 25.2773C20.5 25.5338 20.3966 25.7813 20.2099 25.9651Z" fill="#222222" stroke="#222222"/>
</svg>
