<svg width="30" height="26" viewBox="0 0 30 26" fill="none" xmlns="http://www.w3.org/2000/svg">
<path d="M0 0.996416C0 1.53809 0.442008 2.00134 0.962214 2.00134H5.35512L7.43484 16.5217C7.70825 18.3995 8.68266 19.5765 10.5677 19.5765H25.7369C26.2432 19.5765 26.6852 19.1533 26.6852 18.5851C26.6852 18.0164 26.2432 17.5932 25.7369 17.5932H10.7884C10.0475 17.5932 9.59275 17.0639 9.47573 16.2576L9.26776 14.869H25.7624C27.6602 14.869 28.6352 13.6784 28.908 11.7876L29.9479 4.79154C29.9755 4.62541 29.9929 4.45769 30 4.28936C30 3.65458 29.5319 3.21786 28.8171 3.21786H7.60399L7.34388 1.53866C7.21411 0.520192 6.8503 0.00390625 5.52483 0.00390625H0.961659C0.442008 0.00390625 0 0.467153 0 0.996416ZM9.47628 23.8614C9.47628 25.0649 10.4124 26.0038 11.5948 26.0038C11.872 26.0062 12.1468 25.9523 12.4034 25.8455C12.6599 25.7387 12.8929 25.5809 13.0889 25.3815C13.2849 25.1821 13.44 24.945 13.545 24.684C13.65 24.423 13.7029 24.1434 13.7006 23.8614C13.7018 23.5797 13.6481 23.3006 13.5427 23.0401C13.4373 22.7796 13.2822 22.543 13.0864 22.3438C12.8907 22.1446 12.6581 21.9868 12.4021 21.8796C12.146 21.7724 11.8717 21.7177 11.5948 21.7189C10.4124 21.7189 9.47628 22.6714 9.47628 23.8614ZM21.6296 23.8614C21.6296 25.0649 22.5785 26.0038 23.7481 26.0038C24.931 26.0038 25.8666 25.0649 25.8666 23.8614C25.8666 22.6708 24.931 21.7189 23.7481 21.7189C22.5785 21.7189 21.6296 22.6714 21.6296 23.8614Z" fill="#222222"/>
</svg>
