<?xml version="1.0" encoding="utf-8"?>
<!-- Generator: Adobe Illustrator 23.0.1, SVG Export Plug-In . SVG Version: 6.00 Build 0)  -->
<svg version="1.1" id="Layer_1" xmlns="http://www.w3.org/2000/svg" xmlns:xlink="http://www.w3.org/1999/xlink" x="0px" y="0px"
	 viewBox="0 0 855.5 142.1" style="enable-background:new 0 0 855.5 142.1;" xml:space="preserve">
<style type="text/css">
	.st0{enable-background:new    ;}
	.st1{fill:#393E42;}
	.st2{fill:#38649B;}
</style>
<g>
	<g>
		<g>
			<g class="st0">
				<path class="st1" d="M209.7,99.8V37.6c0-0.5,0.2-0.9,0.5-1.2c0.3-0.3,0.7-0.5,1.2-0.5h4.7c0.5,0,0.9,0.2,1.2,0.5
					c0.3,0.3,0.5,0.7,0.5,1.2v28.6l25.4-29.4c0.3-0.3,0.5-0.5,0.8-0.6c0.2-0.1,0.6-0.2,1-0.2h6.3c0.8,0,1.3,0.3,1.3,1
					c0,0.3-0.1,0.6-0.3,0.9l-26.6,30.1l26.6,31.8c0.3,0.3,0.4,0.7,0.4,1.1c0,0.6-0.4,0.9-1.2,0.9h-6.9c-0.8,0-1.4-0.3-1.9-0.9
					l-24.9-30.3v29.4c0,0.5-0.1,0.9-0.4,1.2c-0.3,0.4-0.7,0.5-1.2,0.5h-4.8c-0.5,0-0.8-0.2-1.1-0.5
					C209.8,100.7,209.7,100.3,209.7,99.8z"/>
				<path class="st1" d="M263.3,99.8v-63c0-0.5,0.1-0.9,0.4-1.2c0.3-0.3,0.7-0.5,1.2-0.5h4.6c0.5,0,0.8,0.2,1.1,0.5
					c0.3,0.3,0.5,0.7,0.5,1.2v63c0,0.5-0.2,0.9-0.5,1.2c-0.3,0.4-0.7,0.5-1.1,0.5h-4.6c-0.5,0-0.8-0.2-1.1-0.5
					C263.4,100.7,263.3,100.3,263.3,99.8z"/>
				<path class="st1" d="M284.8,43.4v-7c0-0.5,0.2-0.9,0.5-1.2c0.3-0.4,0.8-0.5,1.3-0.5h4.5c0.5,0,0.9,0.2,1.2,0.5
					c0.4,0.3,0.5,0.8,0.5,1.3v7c0,0.5-0.2,0.9-0.5,1.2s-0.8,0.5-1.3,0.5h-4.5c-0.5,0-0.9-0.2-1.2-0.5
					C285,44.3,284.8,43.9,284.8,43.4z M284.9,99.8v-45c0-0.5,0.2-0.9,0.5-1.2s0.8-0.5,1.3-0.5h4.2c0.5,0,0.9,0.2,1.2,0.5
					c0.4,0.3,0.5,0.8,0.5,1.3v45c0,0.5-0.2,0.9-0.5,1.2c-0.4,0.4-0.8,0.5-1.2,0.5h-4.2c-0.5,0-0.9-0.2-1.2-0.5
					C285.1,100.7,284.9,100.3,284.9,99.8z"/>
				<path class="st1" d="M305.7,99.8v-45c0-0.5,0.2-0.9,0.5-1.2c0.3-0.4,0.7-0.5,1.2-0.5h4.4c0.5,0,0.8,0.2,1.2,0.5
					c0.3,0.3,0.5,0.8,0.5,1.3v1.6c1.8-1.1,3.7-2.1,5.9-2.9c2.2-0.8,4.5-1.2,7-1.2c1.9,0,3.6,0.3,5,0.8c1.4,0.6,2.7,1.5,3.8,2.8
					c2.5-1.2,5-2.1,7.5-2.7s4.9-0.9,7.2-0.9c2,0,3.9,0.3,5.6,0.8c1.7,0.5,3.3,1.4,4.6,2.7c1.3,1.3,2.3,2.9,3,5
					c0.7,2.1,1.1,4.7,1.1,7.7v31.3c0,0.5-0.2,0.9-0.5,1.2c-0.4,0.4-0.8,0.5-1.2,0.5h-4.2c-0.5,0-0.9-0.2-1.2-0.5
					c-0.4-0.4-0.5-0.8-0.5-1.2V68.5c0-1.8-0.2-3.3-0.6-4.6c-0.4-1.2-1-2.2-1.7-2.9s-1.6-1.2-2.6-1.5c-1-0.3-2.1-0.4-3.2-0.4
					c-1.6,0-3.3,0.2-5.1,0.7c-1.8,0.5-3.5,1-5.2,1.7c0.5,2,0.8,4.3,0.8,6.9v31.4c0,0.5-0.1,0.9-0.4,1.2c-0.3,0.4-0.7,0.5-1.2,0.5
					h-4.7c-0.5,0-0.8-0.2-1.1-0.5c-0.3-0.4-0.4-0.8-0.4-1.2V68.4c0-2-0.1-3.5-0.4-4.7c-0.3-1.2-0.7-2.1-1.3-2.8
					c-0.6-0.7-1.3-1.1-2.2-1.4s-1.9-0.3-3-0.3c-1.6,0-3.3,0.3-5.2,1c-1.9,0.7-3.7,1.5-5.6,2.4v37.3c0,0.5-0.1,0.9-0.4,1.2
					c-0.3,0.4-0.7,0.5-1.1,0.5h-4.7c-0.5,0-0.8-0.2-1.1-0.5C305.8,100.7,305.7,100.3,305.7,99.8z"/>
				<path class="st1" d="M374.4,87.9v-1.1c0-2.4,0.4-4.4,1.1-6.2c0.7-1.8,2-3.3,3.6-4.5c1.7-1.2,3.9-2.1,6.6-2.7
					c2.7-0.6,6-0.9,10-0.9h6.5v-3.6c0-3.7-0.7-6.4-2.1-7.8c-1.4-1.5-3.9-2.2-7.3-2.2c-2.9,0-5.4,0.1-7.6,0.3s-4.2,0.4-5.9,0.6h-0.4
					c-0.4,0-0.8-0.1-1.1-0.3c-0.3-0.2-0.5-0.6-0.5-1.2v-3.1c0-0.9,0.6-1.5,1.9-1.7c1.8-0.3,3.8-0.6,5.9-0.8c2.2-0.2,4.7-0.4,7.7-0.4
					c6.1,0,10.5,1.5,13.2,4.4c2.7,2.9,4,7,4,12.2v30.8c0,0.5-0.2,0.9-0.5,1.2c-0.4,0.4-0.8,0.5-1.2,0.5h-4.1c-0.5,0-0.9-0.2-1.2-0.5
					c-0.3-0.4-0.5-0.8-0.5-1.2v-1.9c-2.1,1.2-4.3,2.3-6.6,3.1c-2.2,0.8-4.6,1.2-7.1,1.2c-1.9,0-3.7-0.2-5.4-0.6
					c-1.7-0.4-3.2-1.2-4.6-2.3c-1.3-1.1-2.4-2.6-3.2-4.4C374.8,92.9,374.4,90.7,374.4,87.9z M382.2,87.8c0,3.2,0.7,5.3,2.1,6.4
					c1.4,1.1,3.4,1.6,6,1.6c2.1,0,4.1-0.3,5.9-0.9c1.9-0.6,3.9-1.5,6-2.7V78.1h-6.5c-2.7,0-4.9,0.2-6.6,0.5
					c-1.8,0.3-3.2,0.8-4.2,1.5c-1,0.7-1.7,1.6-2.1,2.7c-0.4,1.1-0.6,2.4-0.6,4V87.8z"/>
				<path class="st1" d="M416.1,57v-2.4c0-1.1,0.6-1.6,1.7-1.6h8.6v-8.7c0-1,0.5-1.6,1.6-1.8l4.6-0.7h0.3c0.3,0,0.7,0.1,0.9,0.4
					c0.3,0.3,0.4,0.6,0.4,1.1V53h9.5c0.5,0,0.9,0.2,1.2,0.5c0.4,0.3,0.5,0.8,0.5,1.3v3c0,0.5-0.2,0.9-0.5,1.2s-0.8,0.5-1.3,0.5h-9.5
					v30.9c0,2.4,0.4,4,1.1,4.6c0.7,0.6,1.9,1,3.7,1h4.9c1.2,0,1.9,0.4,1.9,1.2v3c0,0.8-0.5,1.3-1.6,1.5c-0.9,0.1-1.9,0.2-2.9,0.3
					c-1,0.1-2,0.1-2.8,0.1c-2.1,0-3.9-0.2-5.3-0.5c-1.5-0.3-2.7-0.9-3.7-1.8c-1-0.9-1.7-2.1-2.2-3.6c-0.5-1.5-0.8-3.5-0.8-5.9V59.5
					l-8.6-0.9C416.6,58.4,416.1,57.9,416.1,57z"/>
				<path class="st1" d="M454.7,99.8V38.2c0-1.3,0.7-2,2.1-2.2c1.9-0.2,4.2-0.4,6.8-0.5c2.7-0.1,5.3-0.2,7.9-0.2
					c3.6,0,6.9,0.3,9.9,1c3,0.7,5.6,1.8,7.8,3.3c2.2,1.5,3.9,3.5,5.1,5.9c1.2,2.4,1.9,5.4,1.9,8.9v1.2c0,3.7-0.6,6.8-1.9,9.3
					c-1.2,2.5-3,4.5-5.1,6.1c-2.2,1.6-4.8,2.7-7.8,3.4c-3,0.7-6.3,1-9.9,1c-1.4,0-2.9,0-4.6-0.1s-3.1-0.2-4.2-0.3v24.7
					c0,0.5-0.1,0.9-0.4,1.2c-0.3,0.4-0.7,0.5-1.2,0.5h-4.8c-0.5,0-0.9-0.2-1.2-0.5C454.9,100.7,454.7,100.3,454.7,99.8z M462.8,68.4
					c0.5,0,1.2,0,1.9,0.1c0.8,0.1,1.6,0.1,2.4,0.1c0.8,0,1.6,0.1,2.4,0.1c0.8,0,1.5,0,2.1,0c6.1,0,10.3-1,12.9-3.1
					c2.5-2.1,3.8-5.4,3.8-10v-1.2c0-4.5-1.3-7.7-4-9.5s-6.9-2.8-12.6-2.8c-1.3,0-2.9,0-4.6,0.1c-1.7,0.1-3.1,0.1-4.2,0.3V68.4z"/>
				<path class="st1" d="M506.2,99.8v-45c0-0.5,0.2-0.9,0.5-1.2c0.3-0.4,0.7-0.5,1.2-0.5h4.1c0.5,0,0.9,0.2,1.2,0.5
					c0.3,0.4,0.5,0.8,0.5,1.3v1.9c2.2-1.5,4.4-2.6,6.4-3.3c2-0.7,4-1,6.1-1c1.2,0,1.9,0.5,1.9,1.6v3.7c0,1-0.6,1.5-1.9,1.5
					c-2.1,0-4.1,0.3-6,0.8c-1.9,0.6-4,1.5-6.2,2.9v36.9c0,0.5-0.2,0.9-0.5,1.2s-0.7,0.5-1.2,0.5h-4.4c-0.5,0-0.9-0.2-1.2-0.5
					C506.4,100.7,506.2,100.3,506.2,99.8z"/>
				<path class="st1" d="M532.6,80.6v-6.7c0-3.2,0.4-6.2,1.2-8.8c0.8-2.6,2.1-4.9,3.7-6.8c1.6-1.9,3.7-3.3,6.1-4.4
					c2.4-1,5.3-1.6,8.5-1.6c3.3,0,6.1,0.5,8.6,1.6c2.5,1,4.5,2.5,6.2,4.4c1.6,1.9,2.9,4.1,3.7,6.8c0.8,2.6,1.3,5.6,1.3,8.8v6.7
					c0,3.3-0.4,6.2-1.3,8.8c-0.8,2.6-2.1,4.9-3.7,6.8c-1.6,1.9-3.7,3.3-6.2,4.4c-2.5,1-5.3,1.5-8.6,1.5c-3.2,0-6.1-0.5-8.5-1.5
					c-2.4-1-4.5-2.5-6.1-4.4c-1.6-1.9-2.9-4.2-3.7-6.8C533,86.8,532.6,83.9,532.6,80.6z M540.4,80.6c0,4.5,0.9,8.1,2.8,10.8
					c1.9,2.6,4.9,4,9.1,4c4.1,0,7.1-1.3,9.1-3.9s2.9-6.2,2.9-10.8v-6.7c0-4.5-1-8.1-2.9-10.8c-1.9-2.6-4.9-4-9.1-4
					c-4.1,0-7.1,1.3-9,3.9c-1.9,2.6-2.8,6.2-2.8,10.8V80.6z"/>
				<path class="st1" d="M576.8,57v-2.4c0-0.5,0.2-0.8,0.5-1.1c0.3-0.3,0.7-0.4,1.2-0.4h8.6v-6.4c0-2.4,0.3-4.3,0.8-5.9
					c0.6-1.6,1.4-2.8,2.4-3.8c1-0.9,2.3-1.6,3.9-2c1.5-0.4,3.3-0.6,5.2-0.6c1.2,0,2.2,0.1,2.9,0.2c0.8,0.1,1.5,0.3,2,0.4
					c1.1,0.3,1.7,0.8,1.7,1.4v2.9c0,0.9-0.5,1.3-1.6,1.3h-4.2c-2.1,0-3.5,0.4-4.2,1.2c-0.8,0.8-1.1,2.4-1.1,4.9V53h9.3
					c0.5,0,0.9,0.1,1.2,0.4c0.3,0.3,0.5,0.7,0.5,1.1V58c0,1-0.6,1.5-1.7,1.5h-9.3v40.3c0,0.5-0.2,0.9-0.5,1.2
					c-0.3,0.4-0.7,0.5-1.2,0.5h-4.3c-0.5,0-0.9-0.2-1.2-0.5c-0.4-0.4-0.5-0.8-0.5-1.2V59.5l-8.6-0.9C577.3,58.4,576.8,57.9,576.8,57
					z"/>
				<path class="st1" d="M608.9,99.9v-7.4c0-0.4,0.2-0.8,0.5-1.1c0.3-0.3,0.7-0.5,1.2-0.5h4.2c0.5,0,0.9,0.1,1.2,0.4
					s0.5,0.7,0.5,1.1v7.4c0,0.4-0.2,0.8-0.5,1.1s-0.7,0.5-1.2,0.5h-4.2c-0.5,0-0.9-0.2-1.2-0.5S608.9,100.3,608.9,99.9z"/>
				<path class="st1" d="M626.5,80.6v-6.7c0-3.2,0.4-6.2,1.2-8.8c0.8-2.6,2.1-4.9,3.7-6.8c1.6-1.9,3.7-3.3,6.1-4.4
					c2.4-1,5.3-1.6,8.5-1.6c3.3,0,6.1,0.5,8.6,1.6c2.5,1,4.5,2.5,6.2,4.4c1.6,1.9,2.9,4.1,3.7,6.8c0.8,2.6,1.3,5.6,1.3,8.8v6.7
					c0,3.3-0.4,6.2-1.3,8.8c-0.8,2.6-2.1,4.9-3.7,6.8c-1.6,1.9-3.7,3.3-6.2,4.4c-2.5,1-5.3,1.5-8.6,1.5c-3.2,0-6.1-0.5-8.5-1.5
					c-2.4-1-4.5-2.5-6.1-4.4c-1.6-1.9-2.9-4.2-3.7-6.8C627,86.8,626.5,83.9,626.5,80.6z M634.3,80.6c0,4.5,0.9,8.1,2.8,10.8
					c1.9,2.6,4.9,4,9.1,4c4.1,0,7.1-1.3,9.1-3.9s2.9-6.2,2.9-10.8v-6.7c0-4.5-1-8.1-2.9-10.8c-1.9-2.6-4.9-4-9.1-4
					c-4.1,0-7.1,1.3-9,3.9c-1.9,2.6-2.8,6.2-2.8,10.8V80.6z"/>
				<path class="st1" d="M676.3,99.8v-45c0-0.5,0.2-0.9,0.5-1.2c0.3-0.4,0.7-0.5,1.2-0.5h4.4c0.5,0,0.8,0.2,1.2,0.5
					c0.3,0.4,0.5,0.8,0.5,1.3v1.7c2.5-1.4,4.8-2.4,6.9-3.1s4.5-1,7.2-1c5.3,0,9.2,1.6,11.7,4.8c2.4,3.2,3.7,7.7,3.7,13.6v29.1
					c0,0.5-0.2,0.9-0.5,1.2s-0.7,0.5-1.2,0.5h-4.3c-0.5,0-0.9-0.2-1.2-0.5c-0.4-0.4-0.5-0.8-0.5-1.2v-29c0-2.2-0.2-4.1-0.6-5.6
					c-0.4-1.5-1-2.7-1.8-3.6c-0.8-0.9-1.8-1.5-3.1-1.9c-1.2-0.4-2.7-0.6-4.3-0.6c-1.9,0-3.8,0.3-5.8,1c-2,0.6-4,1.5-6.1,2.5v37.2
					c0,0.5-0.2,0.9-0.5,1.2s-0.7,0.5-1.2,0.5H678c-0.5,0-0.9-0.2-1.2-0.5C676.4,100.7,676.3,100.3,676.3,99.8z"/>
				<path class="st1" d="M726.3,99.8v-63c0-0.5,0.1-0.9,0.4-1.2c0.3-0.3,0.7-0.5,1.2-0.5h4.6c0.5,0,0.8,0.2,1.1,0.5
					c0.3,0.3,0.5,0.7,0.5,1.2v63c0,0.5-0.2,0.9-0.5,1.2c-0.3,0.4-0.7,0.5-1.1,0.5h-4.6c-0.5,0-0.8-0.2-1.1-0.5
					C726.5,100.7,726.3,100.3,726.3,99.8z"/>
				<path class="st1" d="M747.9,43.4v-7c0-0.5,0.2-0.9,0.5-1.2c0.3-0.4,0.8-0.5,1.3-0.5h4.5c0.5,0,0.9,0.2,1.2,0.5
					c0.4,0.3,0.5,0.8,0.5,1.3v7c0,0.5-0.2,0.9-0.5,1.2s-0.8,0.5-1.3,0.5h-4.5c-0.5,0-0.9-0.2-1.2-0.5
					C748,44.3,747.9,43.9,747.9,43.4z M748,99.8v-45c0-0.5,0.2-0.9,0.5-1.2s0.8-0.5,1.3-0.5h4.2c0.5,0,0.9,0.2,1.2,0.5
					c0.4,0.3,0.5,0.8,0.5,1.3v45c0,0.5-0.2,0.9-0.5,1.2c-0.4,0.4-0.8,0.5-1.2,0.5h-4.2c-0.5,0-0.9-0.2-1.2-0.5
					C748.1,100.7,748,100.3,748,99.8z"/>
				<path class="st1" d="M768.7,99.8v-45c0-0.5,0.2-0.9,0.5-1.2c0.3-0.4,0.7-0.5,1.2-0.5h4.4c0.5,0,0.8,0.2,1.2,0.5
					c0.3,0.4,0.5,0.8,0.5,1.3v1.7c2.5-1.4,4.8-2.4,6.9-3.1s4.5-1,7.2-1c5.3,0,9.2,1.6,11.7,4.8c2.4,3.2,3.7,7.7,3.7,13.6v29.1
					c0,0.5-0.2,0.9-0.5,1.2s-0.7,0.5-1.2,0.5h-4.3c-0.5,0-0.9-0.2-1.2-0.5c-0.4-0.4-0.5-0.8-0.5-1.2v-29c0-2.2-0.2-4.1-0.6-5.6
					c-0.4-1.5-1-2.7-1.8-3.6c-0.8-0.9-1.8-1.5-3.1-1.9c-1.2-0.4-2.7-0.6-4.3-0.6c-1.9,0-3.8,0.3-5.8,1c-2,0.6-4,1.5-6.1,2.5v37.2
					c0,0.5-0.2,0.9-0.5,1.2s-0.7,0.5-1.2,0.5h-4.4c-0.5,0-0.9-0.2-1.2-0.5C768.9,100.7,768.7,100.3,768.7,99.8z"/>
				<path class="st1" d="M816.3,81v-8c0-6.4,1.7-11.4,5-15.1c3.4-3.7,8.2-5.6,14.6-5.6c3.2,0,6,0.5,8.4,1.5s4.4,2.4,6,4.2
					c1.6,1.8,2.8,4,3.6,6.5c0.8,2.6,1.2,5.4,1.2,8.5v4.8c0,1.3-0.6,1.9-1.7,1.9h-29.5V81c0,5.2,1,8.9,3.1,11.1
					c2.1,2.2,5.1,3.3,9.2,3.3c2.6,0,5.3-0.1,8.2-0.3c2.9-0.2,5.4-0.4,7.5-0.7h0.4c0.3,0,0.7,0.1,1,0.3c0.3,0.2,0.4,0.5,0.4,1v3
					c0,0.6-0.1,1-0.4,1.4c-0.2,0.3-0.7,0.6-1.4,0.7c-2.5,0.5-5,0.8-7.5,1.1c-2.5,0.3-5.2,0.4-8.2,0.4c-2.5,0-5-0.3-7.4-1
					c-2.4-0.7-4.5-1.8-6.4-3.4c-1.9-1.6-3.4-3.8-4.5-6.5C816.9,88.5,816.3,85.1,816.3,81z M824.1,73.8h23.4V73c0-5-1-8.6-2.9-10.7
					c-1.9-2.1-4.8-3.2-8.7-3.2c-3.8,0-6.8,1.1-8.8,3.4c-2,2.2-3,5.7-3,10.5V73.8z"/>
			</g>
		</g>
	</g>
</g>
<g>
	<path class="st2" d="M154,102.8H67.3c-10.5,0-20.1,8.2-21.8,18.6c-0.9,5.4,0.5,10.7,3.8,14.6c3.3,3.9,8.2,6.1,13.5,6.1
		c10.5,0,20.1-8.2,21.8-18.6c0.5-2.8,0.3-5.5-0.3-8h49.8c-0.9,1.9-1.6,3.8-1.9,5.9c-0.9,5.4,0.5,10.7,3.8,14.6
		c3.3,3.9,8.2,6.1,13.5,6.1c10.5,0,20.1-8.2,21.8-18.6c0.9-5.4-0.5-10.7-3.8-14.6C164.3,105,159.4,102.8,154,102.8z M72.1,121.4
		c-0.7,4.3-5.1,8-9.3,8c-1.6,0-3-0.5-3.9-1.6c-0.9-1.1-1.2-2.6-0.9-4.3c0.7-4.3,5.1-8,9.3-8c1.6,0,3,0.5,3.9,1.6
		C72.1,118.1,72.4,119.7,72.1,121.4z M158.8,121.4c-0.7,4.3-5.1,8-9.3,8c-1.6,0-3-0.5-3.9-1.6c-0.9-1.1-1.2-2.6-0.9-4.3
		c0.7-4.3,5.1-8,9.3-8c1.6,0,3,0.5,3.9,1.6C158.8,118.1,159.1,119.7,158.8,121.4z"/>
	<path class="st2" d="M101.4,75.6c5.4,0,10.7-2.1,14.9-5.9c4.2-3.8,6.7-8.9,7.2-14.4c0.5-5.5-1.2-10.7-4.8-14.6
		c-3.6-3.9-8.7-6.1-14.2-6.1c-5.5,0-10.8,2.1-14.9,5.9c-4.2,3.8-6.7,8.9-7.1,14.4c-0.4,5.5,1.3,10.7,4.9,14.6
		C90.8,73.5,95.8,75.6,101.4,75.6z M87,56.3h31.4c-0.1,0.7-0.3,1.4-0.5,2.1H87.1C87.1,57.7,87,57,87,56.3z M93.6,43.3h20.6
		c0.2,0.2,0.5,0.5,0.7,0.7c0.4,0.4,0.8,0.9,1.1,1.4H91.4C92.1,44.6,92.8,43.9,93.6,43.3z M117.4,47.6c0.3,0.7,0.6,1.4,0.8,2.1H88.6
		c0.3-0.7,0.7-1.4,1.2-2.1H117.4z M118.6,52c0.1,0.7,0.1,1.4,0.1,2.1H87.2c0.1-0.7,0.3-1.4,0.5-2.1H118.6z M117,60.6
		c-0.3,0.7-0.7,1.4-1.2,2.1H88.4c-0.3-0.7-0.6-1.4-0.8-2.1H117z M114.2,64.9c-0.7,0.8-1.4,1.5-2.2,2.1H91.5
		c-0.2-0.2-0.5-0.5-0.7-0.7c-0.4-0.4-0.8-0.9-1.1-1.4H114.2z M94.7,69.3h13.6c-2.2,1-4.5,1.5-7,1.5C99,70.8,96.7,70.3,94.7,69.3z
		 M111.1,41.1H97.2c2.2-1,4.6-1.6,7.1-1.6C106.8,39.5,109.1,40,111.1,41.1z"/>
	<polygon class="st2" points="154.4,35.8 138.5,35.8 138,40.7 154,40.7 	"/>
	<polygon class="st2" points="15.9,35.8 14.8,48.5 46.5,48.5 47.6,35.8 	"/>
	<path class="st2" d="M70.6,14.2L72.1,0H40.4l-1.1,12.7h18.9l-3.8,43.6H1.1L0,68.9h53.3l-0.8,8.6H28.6l-1.1,12.7h23.9l-0.6,6.6
		h118.6l7.3-82.6H70.6z M159.4,84.1l-93.8,0l5.2-58l93.8,0L159.4,84.1z"/>
</g>
</svg>
